<svg version="1.1" id="Layer_1" xmlns="http://www.w3.org/2000/svg" xmlns:xlink="http://www.w3.org/1999/xlink" x="0px" y="0px"
	 width="100%" viewBox="0 0 496 496" enable-background="new 0 0 496 496" xml:space="preserve">
<path fill="#000000" opacity="1.000000" stroke="none" 
	d="
M155.817596,369.221985 
	C137.138550,352.512146 127.569763,331.297729 124.794159,307.342285 
	C116.262756,233.710159 139.273773,170.366089 189.921997,117.076836 
	C213.960037,91.785347 243.164642,74.360428 278.094177,68.381310 
	C298.704193,64.853348 319.268250,64.885406 338.572571,74.733772 
	C356.171692,83.712204 365.116486,102.080002 362.636139,121.697754 
	C359.815582,144.006195 349.601044,162.256851 333.984619,177.955200 
	C330.139038,181.820923 326.148041,183.005554 320.921936,181.279449 
	C305.829346,176.294617 296.801361,165.880829 292.975800,150.693878 
	C291.921967,146.510239 294.320526,143.752029 297.254883,141.287476 
	C304.963135,134.813324 311.715210,127.521324 316.786163,118.743324 
	C318.893951,115.094704 320.384613,111.249222 321.281647,107.158241 
	C322.948761,99.555176 319.395782,94.982727 311.535828,94.338921 
	C302.610016,93.607811 294.371521,95.850044 286.501526,99.822701 
	C266.579407,109.879044 251.975891,125.616722 239.683258,143.789856 
	C218.288956,175.418671 202.259460,209.442932 194.957611,247.108536 
	C189.996033,272.702118 187.250473,298.504120 194.411896,324.205475 
	C196.980911,333.425415 200.861267,342.078857 209.245377,347.835358 
	C212.669266,350.186157 215.853241,350.723724 219.924454,349.134979 
	C238.164856,342.016663 253.864975,330.821350 269.229218,319.050262 
	C281.404602,309.722290 292.936310,299.634949 304.205322,289.236847 
	C310.563782,283.369843 315.910645,284.331268 320.276672,291.991028 
	C323.020447,296.804626 324.848450,301.378479 320.718719,306.708191 
	C299.930695,333.536652 277.357483,358.585815 250.021774,378.987701 
	C246.955444,381.276245 243.475876,383.047638 240.573822,385.513062 
	C230.561676,394.019012 218.971176,392.918304 207.318314,391.217377 
	C188.360596,388.450226 170.889389,382.063049 155.817596,369.221985 
M299.376862,303.258179 
	C286.526123,313.530121 274.137329,324.391968 260.503113,333.663147 
	C247.707291,342.364258 234.778625,350.782379 220.000702,355.923553 
	C215.899216,357.350433 212.327530,357.059265 208.541107,355.109467 
	C204.595428,353.077637 201.691620,349.746063 197.348846,346.307709 
	C199.607376,350.368134 202.089279,352.526581 204.644043,354.662598 
	C210.802765,359.811920 217.290924,360.643433 224.418701,356.701233 
	C227.756744,354.855042 231.356644,353.488373 234.743774,351.723755 
	C253.596130,341.902069 270.273438,328.925018 286.550812,315.446838 
	C291.230499,311.571899 296.495972,308.197784 300.629578,302.783020 
	C305.602692,301.020294 307.125488,293.215729 314.191956,295.052856 
	C312.867950,292.940674 311.328827,291.575470 309.111481,293.907928 
	C306.152161,297.020752 302.435791,299.374664 299.376862,303.258179 
M257.398560,82.746651 
	C282.184662,74.441689 307.149963,71.770538 333.569733,81.141884 
	C318.620911,70.461983 284.943542,70.799141 255.744003,81.126816 
	C233.022491,89.163246 198.752625,112.868645 190.592133,126.793411 
	C210.147995,107.151878 231.394012,92.005302 257.398560,82.746651 
M310.985687,139.148056 
	C311.380981,138.643631 311.776306,138.139206 312.171600,137.634781 
	C312.199158,137.672485 312.226715,137.710190 312.254272,137.747879 
	C309.620758,140.735962 306.987244,143.724030 304.353760,146.712097 
	C304.399017,146.755615 304.444275,146.799149 304.489563,146.842682 
	C306.527924,144.427795 308.566284,142.012924 310.985687,139.148056 
z"/>
<path fill="#000000" opacity="1.000000" stroke="none" 
	d="
M150.222229,374.761200 
	C168.539062,390.740631 190.130402,396.890228 213.426163,400.057678 
	C227.384018,401.955505 238.031876,397.100586 248.643097,389.753357 
	C277.723724,369.617798 301.404449,344.031128 323.071930,316.376740 
	C327.059570,311.287262 330.942902,306.198761 332.308411,299.454437 
	C337.082642,303.363037 336.874207,310.116211 333.744690,315.918945 
	C326.765198,328.860168 315.067413,337.961182 307.003723,350.021362 
	C294.957428,368.038025 281.707916,385.161224 266.458557,400.644318 
	C258.858337,408.361084 250.862000,415.595337 242.305130,422.292236 
	C235.177277,427.870697 227.496216,429.186676 218.896103,428.225159 
	C189.851807,424.977936 167.393768,411.452942 152.354660,386.088196 
	C148.463654,379.525696 144.285645,373.133423 140.873932,366.042786 
	C143.901871,368.868134 146.929794,371.693481 150.222229,374.761200 
z"/>
<path fill="#000000" opacity="1.000000" stroke="none" 
	d="
M306.187469,101.829025 
	C313.790802,101.946419 314.937714,103.315742 312.390808,109.689262 
	C307.719116,121.379936 299.104034,129.849091 289.169067,137.141708 
	C288.204834,137.849487 287.048889,138.184708 285.851288,137.935516 
	C279.717743,136.659103 275.385803,139.814713 271.178925,143.625427 
	C256.424255,156.990753 246.991318,174.015060 238.256836,191.484787 
	C225.387711,217.224121 215.947906,244.184326 210.843170,272.529480 
	C207.415207,291.563934 205.185089,310.734375 208.547928,330.082153 
	C208.711273,331.021881 209.204758,332.025208 207.906509,333.039978 
	C205.587173,332.193146 204.787918,330.001068 203.954803,327.888641 
	C198.850677,314.946960 198.003189,301.422638 198.297165,287.698364 
	C198.705048,268.657043 201.254837,249.931335 206.682312,231.682800 
	C218.311295,192.583160 236.323242,156.871796 263.929840,126.481453 
	C271.352539,118.310249 280.142395,111.695816 290.114655,106.735710 
	C295.092255,104.259880 300.334503,102.820053 306.187469,101.829025 
z"/>
<path fill="#000000" opacity="1.000000" stroke="none" 
	d="
M327.645630,189.811829 
	C332.164276,189.598038 335.306976,187.408707 338.130066,184.762939 
	C355.872681,168.134750 366.919128,147.845505 370.454803,123.770943 
	C371.356293,117.632713 370.590027,111.249535 370.590027,104.456398 
	C373.666290,105.423264 374.226257,107.360069 374.699982,109.220467 
	C382.533234,139.984970 368.614838,176.618225 341.157196,192.424576 
	C337.912140,194.292633 335.416962,196.811157 333.203857,199.834885 
	C329.768341,204.528839 326.053741,209.026733 322.315247,213.488586 
	C318.172729,218.432663 312.958130,219.228760 306.946350,217.362579 
	C287.729431,211.397247 273.989197,187.457840 278.595764,167.701736 
	C279.973389,161.793716 281.471893,155.913910 283.511688,149.899826 
	C290.596069,171.768753 302.606689,187.734512 327.645630,189.811829 
z"/>
</svg>